# xmcd
#
# Track frame offsets:
#	150
#	11573
#	22155
#	34715
#	58422
#	75458
#	92358
#	104063
#	115673
#	135023
#	148278
#	169355
#	182868
#	196583
#
# Disc length: 2775 seconds
#
# Revision: 1232105160
# Processed by: cddbd v1.5.2PL0 Copyright (c) Steve Scherf et al.
# Submitted via: EZCDAudioConverter 8.0.7.1
#
DISCID=b90ad50e
DTITLE=Various Artist - Blues Breakers [CD3) (KBOX 320C)
DYEAR=1994
DGENRE=Blues
TTITLE0=John Lee Hooker - Boogie Chillen 2
TTITLE1=Howlin’ Wolf - Who's Been Talking
TTITLE2=Muddy Waters - Mean Mistreater
TTITLE3=B.B. King - You Done Lost Your Good Thing Now
TTITLE4=Ike and Tina Turner - I Smell Trouble
TTITLE5=Johnny Winter - Kind Hearted Woman
TTITLE6=Little Walter - My Babe
TTITLE7=Bo Diddley - Pretty Thing
TTITLE8=Sonny Boy Williamson - Nine Below Zero
TTITLE9=Little Milton - Who's Cheatin' Who
TTITLE10=Mike Bloomfield - Cherry Red
TTITLE11=Lightnin’ Hopkins - Mojo Hand
TTITLE12=Ray Charles - I'm Gonna Drown Myself
TTITLE13=John Mayall - Lost and Gone
EXTD=
EXTT0=
EXTT1=
EXTT2=
EXTT3=
EXTT4=
EXTT5=
EXTT6=
EXTT7=
EXTT8=
EXTT9=
EXTT10=
EXTT11=
EXTT12=
EXTT13=
PLAYORDER=
